<svg width="128" height="22" viewBox="0 0 128 22" fill="none" xmlns="http://www.w3.org/2000/svg">
<path d="M7.17345 3.20243C9.44566 3.20243 11.0969 3.64699 12.1271 4.53611C13.1715 5.41113 13.6937 6.76598 13.6937 8.60068C13.6937 10.4213 13.1574 11.755 12.0848 12.6017C11.0263 13.4485 9.40332 13.8719 7.21579 13.8719H5.24701V18H1.94455V3.20243H7.17345ZM7.46982 11.014C8.57064 11.014 9.31864 10.7953 9.71381 10.3578C10.109 9.90614 10.3066 9.25694 10.3066 8.41016C10.3066 7.54926 10.0455 6.9424 9.52328 6.58957C9.01521 6.22263 8.21782 6.03916 7.13111 6.03916H5.24701V11.014H7.46982ZM18.3494 12.3054C18.3494 13.2368 18.6105 13.9989 19.1326 14.5917C19.6689 15.1703 20.3464 15.4596 21.1649 15.4596C21.9976 15.4596 22.675 15.1703 23.1972 14.5917C23.7335 13.9989 24.0017 13.2368 24.0017 12.3054C24.0017 11.3739 23.7335 10.6118 23.1972 10.019C22.675 9.4263 21.9976 9.12992 21.1649 9.12992C20.3464 9.12992 19.6689 9.4263 19.1326 10.019C18.6105 10.6118 18.3494 11.3739 18.3494 12.3054ZM27.1983 12.3054C27.1983 13.9566 26.6267 15.3467 25.4835 16.4758C24.3404 17.6048 22.9008 18.1694 21.1649 18.1694C19.4431 18.1694 18.0106 17.6048 16.8675 16.4758C15.7243 15.3467 15.1527 13.9566 15.1527 12.3054C15.1527 10.6541 15.7243 9.264 16.8675 8.13495C18.0106 6.99179 19.4431 6.42021 21.1649 6.42021C22.9008 6.42021 24.3404 6.99179 25.4835 8.13495C26.6267 9.264 27.1983 10.6541 27.1983 12.3054ZM35.0186 15.3538C36.0771 15.3538 37.0297 14.8246 37.8765 13.7661L39.7606 15.883C38.2929 17.4073 36.7051 18.1694 34.9975 18.1694C33.2898 18.1694 31.8432 17.6331 30.6577 16.5605C29.4863 15.4738 28.9006 14.0624 28.9006 12.3265C28.9006 10.5765 29.4934 9.15815 30.6789 8.07144C31.8785 6.97062 33.2968 6.42021 34.9339 6.42021C35.7525 6.42021 36.5781 6.58957 37.4108 6.92828C38.2576 7.267 38.9985 7.76801 39.6336 8.43133L37.9824 10.5906C37.6154 10.1531 37.1638 9.81441 36.6275 9.57449C36.1053 9.33456 35.5831 9.2146 35.061 9.2146C34.2283 9.2146 33.5085 9.48981 32.9017 10.0402C32.3089 10.5765 32.0125 11.3316 32.0125 12.3054C32.0125 13.2651 32.3089 14.0131 32.9017 14.5494C33.5085 15.0856 34.2142 15.3538 35.0186 15.3538ZM45.0537 18H41.8782V2.29213H45.0537V10.3578L48.589 6.58957H52.5901L48.2503 11.2045L52.7594 18H48.9912L46.091 13.6391L45.0537 14.7187V18ZM64.3334 16.3488C63.0491 17.5625 61.539 18.1694 59.8031 18.1694C58.0813 18.1694 56.6559 17.6401 55.5269 16.5816C54.3978 15.509 53.8333 14.0766 53.8333 12.2842C53.8333 10.4918 54.4049 9.06642 55.548 8.00793C56.7053 6.94945 58.0672 6.42021 59.6338 6.42021C61.2003 6.42021 62.527 6.893 63.6137 7.83858C64.7145 8.78415 65.2649 10.0826 65.2649 11.7338V13.4274H56.9664C57.0652 14.0483 57.3898 14.5564 57.9402 14.9516C58.4906 15.3467 59.1116 15.5443 59.8031 15.5443C60.9181 15.5443 61.8354 15.1703 62.5552 14.4223L64.3334 16.3488ZM62.0471 11.1622C61.9765 10.4848 61.7225 9.9626 61.285 9.59566C60.8475 9.22872 60.3112 9.04525 59.6761 9.04525C59.0551 9.04525 58.4836 9.23577 57.9614 9.61683C57.4392 9.99788 57.1358 10.513 57.0511 11.1622H62.0471ZM71.22 8.89706V13.9989C71.22 14.4364 71.3329 14.7822 71.5587 15.0363C71.7845 15.2762 72.0527 15.3961 72.3632 15.3961C72.9559 15.3961 73.4569 15.128 73.8662 14.5917L75.0517 16.8145C74.0638 17.7177 73.0194 18.1694 71.9186 18.1694C70.8319 18.1694 69.9075 17.8095 69.1454 17.0897C68.3974 16.3699 68.0234 15.3891 68.0234 14.1471V8.89706H66.6897V6.61074H68.0234V3.20243H71.22V6.61074H73.9721V8.89706H71.22ZM83.5498 18H77.0719V3.20243H82.8301C83.8321 3.20243 84.693 3.32239 85.4128 3.56231C86.1466 3.80223 86.6971 4.12684 87.064 4.53611C87.7273 5.29822 88.059 6.15912 88.059 7.11881C88.059 8.27608 87.685 9.13698 86.937 9.7015C86.6829 9.89909 86.5065 10.0261 86.4077 10.0826C86.3089 10.1249 86.1325 10.2025 85.8785 10.3154C86.7958 10.513 87.5227 10.9293 88.059 11.5644C88.6094 12.1854 88.8846 12.9616 88.8846 13.8931C88.8846 14.9233 88.5318 15.8336 87.8261 16.624C87.0075 17.5413 85.5821 18 83.5498 18ZM80.3744 9.19343H81.9409C82.8583 9.19343 83.5357 9.09464 83.9732 8.89706C84.4248 8.69948 84.6507 8.27608 84.6507 7.62688C84.6507 6.96357 84.446 6.52606 84.0367 6.31436C83.6275 6.10267 82.9359 5.99682 81.9621 5.99682H80.3744V9.19343ZM80.3744 15.2056H82.6395C83.5851 15.2056 84.2908 15.0927 84.7565 14.8669C85.2364 14.627 85.4763 14.1683 85.4763 13.4909C85.4763 12.7993 85.2222 12.3477 84.7142 12.136C84.2202 11.9102 83.4228 11.7973 82.322 11.7973H80.3744V15.2056Z" fill="white"/>
<path fill-rule="evenodd" clip-rule="evenodd" d="M98.8257 15.1086C97.1056 15.1086 95.8355 14.0163 95.1239 12.5222C94.4112 11.0261 94.9123 9.20822 96.1275 7.98584C96.8854 7.22361 97.8828 6.80203 99.0584 6.80203H108.84C109.215 6.80203 109.461 7.04776 109.461 7.4231V14.4099C109.461 14.7641 109.308 15.1086 108.995 15.1086H98.8257ZM109.306 4.78418H106.901C106.329 4.83525 105.044 4.81116 103.586 4.78418H98.8083C98.207 4.81357 97.7233 4.86465 97.4351 4.94656C95.7512 5.42548 94.6112 6.25179 93.6866 7.71845C93.4972 8.01862 93.3787 8.26483 93.2371 8.58861C93.0145 9.09741 92.7702 10.0326 92.7702 10.7616C92.7702 11.9141 92.9277 12.7746 93.3893 13.7132C93.6933 14.3309 93.9261 14.6229 94.3404 15.0908C94.4797 15.2478 94.538 15.3769 94.6974 15.5099C95.8345 16.4615 97.1465 17.2045 99.213 17.2045H107.286V17.2151H109.305V17.2045C110.129 16.8089 110.663 16.8715 111.249 15.733C111.382 15.4733 111.478 15.2011 111.478 14.7978V7.19037C111.478 5.94343 110.406 4.87573 109.305 4.78418H109.306Z" fill="#F48734"/>
<path fill-rule="evenodd" clip-rule="evenodd" d="M96.8849 10.9161C96.8849 13.3749 99.7849 14.7191 101.679 12.8386C102.121 12.4001 102.51 11.6244 102.455 10.9373C102.143 7.0616 96.8849 7.56559 96.8849 10.9161Z" fill="#F48734"/>
<path d="M118.803 18H115.627V2.29213H118.803V10.3578L122.338 6.58957H126.339L121.999 11.2045L126.509 18H122.74L119.84 13.6391L118.803 14.7187V18Z" fill="white"/>
</svg>
