<svg width="32" height="33" viewBox="0 0 32 33" fill="none" xmlns="http://www.w3.org/2000/svg">
<path fill-rule="evenodd" clip-rule="evenodd" d="M22.3289 24.0213C21.0372 24.0213 20.0833 23.2008 19.549 22.0789C19.0141 20.9557 19.3902 19.5902 20.303 18.6719C20.872 18.0992 21.6214 17.7831 22.5042 17.7831H29.85C30.1319 17.7831 30.3165 17.9676 30.3165 18.2496V23.4966C30.3165 23.7628 30.2012 24.0213 29.9667 24.0213H22.3293H22.3289ZM17.7815 20.7568C17.7815 21.6225 17.8997 22.2686 18.2462 22.9737C18.4742 23.438 18.6491 23.6572 18.9606 24.0083C19.0653 24.1265 19.1092 24.2234 19.2287 24.3235C20.0824 25.0379 21.0681 25.5958 22.6201 25.5958H28.6834V29.7352C28.6834 30.7076 27.9653 31.4842 26.9925 31.4842H3.20632C2.2783 31.4842 1.51548 30.714 1.51548 29.7934V12.0123C1.51548 11.4595 1.80114 11.0091 2.11448 10.746C2.33737 10.5582 2.44304 10.5185 2.71347 10.4387L26.6427 10.3215C27.3336 10.3215 27.6921 10.4166 28.0839 10.7456C28.4171 11.0252 28.6829 11.4853 28.6829 12.07V16.0927C28.6829 16.1679 28.7508 16.2164 28.5043 16.2547C27.6289 16.3913 22.4244 16.0655 21.2846 16.3899C20.0197 16.7498 19.1636 17.37 18.4691 18.4716C18.327 18.6968 18.2379 18.8818 18.1313 19.125C17.9643 19.5071 17.7811 20.2095 17.7811 20.7568H17.7815ZM13.817 8.80555C13.9541 8.68649 14.2092 8.63525 14.4003 8.57249L18.6634 7.1221C19.4931 6.84567 20.267 6.56739 21.0972 6.29097C23.8947 5.35879 23.6316 5.15668 23.969 6.17423C24.0954 6.55633 24.8148 8.54988 24.8361 8.80508H13.8175L13.817 8.80555ZM11.1021 6.38234C11.7764 5.97855 17.1382 2.54657 17.548 2.45105C17.7584 2.59226 17.7091 2.52582 17.8443 2.73809L19.4138 5.24988L14.961 6.74368C13.493 7.2333 12.0565 7.77277 10.5659 8.23655C8.34298 8.9283 9.67619 8.806 7.22946 8.806L11.1026 6.38281L11.1021 6.38234ZM0 11.8956V30.085C0 30.4708 0.177666 30.9452 0.310109 31.2318C0.753585 32.1912 1.89805 32.9997 2.91468 32.9997H27.2256C28.4919 32.9997 29.7355 31.9965 30.0955 30.6813C30.3373 29.798 30.1989 26.8284 30.1989 25.5958C30.8177 25.2991 31.2187 25.3461 31.659 24.4906C31.7591 24.2958 31.8315 24.0914 31.8315 23.7887V18.0752C31.8315 17.1388 31.0263 16.3368 30.1993 16.2676C30.1993 15.209 30.3258 11.6307 30.024 10.9048C29.97 10.7756 29.8846 10.5494 29.8117 10.4175C29.7323 10.2744 29.6174 10.1484 29.5168 10.0128C29.4005 9.85585 29.3419 9.76679 29.1845 9.64542C29.0198 9.51898 28.9432 9.42577 28.7987 9.33163C28.1282 8.89461 27.6266 8.80508 26.5269 8.80508C26.2348 8.25223 26.0673 7.38466 25.9782 7.19084C25.9718 7.177 25.9487 7.1364 25.9413 7.12117L25.5449 5.99793C25.3169 5.38832 25.2237 4.6306 24.4484 4.17928C23.3626 3.54752 22.0501 4.45016 20.872 4.72428C20.8088 4.48662 20.3999 3.91068 20.249 3.65595L18.8655 1.4838C18.8526 1.47226 18.8148 1.44181 18.8018 1.43074L18.4008 1.13215C18.0335 0.924489 17.7746 0.934651 17.374 0.934651C16.7164 0.934651 15.6477 1.72838 15.0537 2.11186L12.8608 3.47506C12.0999 3.9393 11.4035 4.36063 10.6587 4.82949C8.80815 5.99425 6.4731 7.35744 4.68858 8.53743C4.46938 8.68234 4.34985 8.8014 4.02821 8.80925C3.33369 8.82632 2.9479 8.77002 2.37844 8.90846C1.55055 9.1092 0.772046 9.7082 0.369641 10.4562C0.157825 10.8499 0.00138577 11.3123 0.00138577 11.8951L0 11.8956Z" fill="white"/>
<path fill-rule="evenodd" clip-rule="evenodd" d="M20.8716 20.8733C20.8716 22.7192 23.0493 23.7293 24.472 22.3168C24.8038 21.9873 25.096 21.4049 25.0544 20.889C24.8205 17.9785 20.8712 18.3568 20.8712 20.8733H20.8716Z" fill="white"/>
</svg>
