<svg width="165" height="33" viewBox="0 0 165 33" fill="none" xmlns="http://www.w3.org/2000/svg">
<path fill-rule="evenodd" clip-rule="evenodd" d="M22.3289 24.0213C21.0372 24.0213 20.0833 23.2008 19.549 22.0789C19.0141 20.9557 19.3902 19.5902 20.303 18.6719C20.872 18.0992 21.6214 17.7831 22.5042 17.7831H29.85C30.1319 17.7831 30.3165 17.9676 30.3165 18.2496V23.4966C30.3165 23.7628 30.2012 24.0213 29.9667 24.0213H22.3293H22.3289ZM17.7815 20.7568C17.7815 21.6225 17.8997 22.2686 18.2462 22.9737C18.4742 23.438 18.6491 23.6572 18.9606 24.0083C19.0653 24.1265 19.1092 24.2234 19.2287 24.3235C20.0824 25.0379 21.0681 25.5958 22.6201 25.5958H28.6834V29.7352C28.6834 30.7076 27.9653 31.4842 26.9925 31.4842H3.20632C2.2783 31.4842 1.51548 30.714 1.51548 29.7934V12.0123C1.51548 11.4595 1.80114 11.0091 2.11448 10.746C2.33737 10.5582 2.44304 10.5185 2.71347 10.4387L26.6427 10.3215C27.3336 10.3215 27.6921 10.4166 28.0839 10.7456C28.4171 11.0252 28.6829 11.4853 28.6829 12.07V16.0927C28.6829 16.1679 28.7508 16.2164 28.5043 16.2547C27.6289 16.3913 22.4244 16.0655 21.2846 16.3899C20.0197 16.7498 19.1636 17.37 18.4691 18.4716C18.327 18.6968 18.2379 18.8818 18.1313 19.125C17.9643 19.5071 17.7811 20.2095 17.7811 20.7568H17.7815ZM13.817 8.80555C13.9541 8.68649 14.2092 8.63525 14.4003 8.57249L18.6634 7.1221C19.4931 6.84567 20.267 6.56739 21.0972 6.29097C23.8947 5.35879 23.6316 5.15668 23.969 6.17423C24.0954 6.55633 24.8148 8.54988 24.8361 8.80508H13.8175L13.817 8.80555ZM11.1021 6.38234C11.7764 5.97855 17.1382 2.54657 17.548 2.45105C17.7584 2.59226 17.7091 2.52582 17.8443 2.73809L19.4138 5.24988L14.961 6.74368C13.493 7.2333 12.0565 7.77277 10.5659 8.23655C8.34298 8.9283 9.67619 8.806 7.22946 8.806L11.1026 6.38281L11.1021 6.38234ZM0 11.8956V30.085C0 30.4708 0.177666 30.9452 0.310109 31.2318C0.753585 32.1912 1.89805 32.9997 2.91468 32.9997H27.2256C28.4919 32.9997 29.7355 31.9965 30.0955 30.6813C30.3373 29.798 30.1989 26.8284 30.1989 25.5958C30.8177 25.2991 31.2187 25.3461 31.659 24.4906C31.7591 24.2958 31.8315 24.0914 31.8315 23.7887V18.0752C31.8315 17.1388 31.0263 16.3368 30.1993 16.2676C30.1993 15.209 30.3258 11.6307 30.024 10.9048C29.97 10.7756 29.8846 10.5494 29.8117 10.4175C29.7323 10.2744 29.6174 10.1484 29.5168 10.0128C29.4005 9.85585 29.3419 9.76679 29.1845 9.64542C29.0198 9.51898 28.9432 9.42577 28.7987 9.33163C28.1282 8.89461 27.6266 8.80508 26.5269 8.80508C26.2348 8.25223 26.0673 7.38466 25.9782 7.19084C25.9718 7.177 25.9487 7.1364 25.9413 7.12117L25.5449 5.99793C25.3169 5.38832 25.2237 4.6306 24.4484 4.17928C23.3626 3.54752 22.0501 4.45016 20.872 4.72428C20.8088 4.48662 20.3999 3.91068 20.249 3.65595L18.8655 1.4838C18.8526 1.47226 18.8148 1.44181 18.8018 1.43074L18.4008 1.13215C18.0335 0.924489 17.7746 0.934651 17.374 0.934651C16.7164 0.934651 15.6477 1.72838 15.0537 2.11186L12.8608 3.47506C12.0999 3.9393 11.4035 4.36063 10.6587 4.82949C8.80815 5.99425 6.4731 7.35744 4.68858 8.53743C4.46938 8.68234 4.34985 8.8014 4.02821 8.80925C3.33369 8.82632 2.9479 8.77002 2.37844 8.90846C1.55055 9.1092 0.772046 9.7082 0.369641 10.4562C0.157825 10.8499 0.00138577 11.3123 0.00138577 11.8951L0 11.8956Z" fill="white"/>
<path fill-rule="evenodd" clip-rule="evenodd" d="M20.8716 20.8733C20.8716 22.7192 23.0493 23.7293 24.472 22.3168C24.8038 21.9873 25.096 21.4049 25.0544 20.889C24.8205 17.9785 20.8712 18.3568 20.8712 20.8733H20.8716Z" fill="white"/>
<path d="M44.1734 14.2024C46.4457 14.2024 48.0969 14.647 49.1271 15.5361C50.1715 16.4111 50.6937 17.766 50.6937 19.6007C50.6937 21.4213 50.1574 22.755 49.0848 23.6017C48.0263 24.4485 46.4033 24.8719 44.2158 24.8719H42.247V29H38.9446V14.2024H44.1734ZM44.4698 22.014C45.5706 22.014 46.3186 21.7953 46.7138 21.3578C47.109 20.9061 47.3066 20.2569 47.3066 19.4102C47.3066 18.5493 47.0455 17.9424 46.5233 17.5896C46.0152 17.2226 45.2178 17.0392 44.1311 17.0392H42.247V22.014H44.4698ZM55.3494 23.3054C55.3494 24.2368 55.6105 24.9989 56.1326 25.5917C56.6689 26.1703 57.3464 26.4596 58.1649 26.4596C58.9976 26.4596 59.675 26.1703 60.1972 25.5917C60.7335 24.9989 61.0017 24.2368 61.0017 23.3054C61.0017 22.3739 60.7335 21.6118 60.1972 21.019C59.675 20.4263 58.9976 20.1299 58.1649 20.1299C57.3464 20.1299 56.6689 20.4263 56.1326 21.019C55.6105 21.6118 55.3494 22.3739 55.3494 23.3054ZM64.1983 23.3054C64.1983 24.9566 63.6267 26.3467 62.4835 27.4758C61.3404 28.6048 59.9008 29.1694 58.1649 29.1694C56.4431 29.1694 55.0106 28.6048 53.8675 27.4758C52.7243 26.3467 52.1527 24.9566 52.1527 23.3054C52.1527 21.6541 52.7243 20.264 53.8675 19.135C55.0106 17.9918 56.4431 17.4202 58.1649 17.4202C59.9008 17.4202 61.3404 17.9918 62.4835 19.135C63.6267 20.264 64.1983 21.6541 64.1983 23.3054ZM72.0186 26.3538C73.0771 26.3538 74.0297 25.8246 74.8765 24.7661L76.7606 26.883C75.2929 28.4073 73.7051 29.1694 71.9975 29.1694C70.2898 29.1694 68.8432 28.6331 67.6577 27.5605C66.4863 26.4738 65.9006 25.0624 65.9006 23.3265C65.9006 21.5765 66.4934 20.1582 67.6789 19.0714C68.8785 17.9706 70.2968 17.4202 71.9339 17.4202C72.7525 17.4202 73.5781 17.5896 74.4108 17.9283C75.2576 18.267 75.9985 18.768 76.6336 19.4313L74.9824 21.5906C74.6154 21.1531 74.1638 20.8144 73.6275 20.5745C73.1053 20.3346 72.5831 20.2146 72.061 20.2146C71.2283 20.2146 70.5085 20.4898 69.9017 21.0402C69.3089 21.5765 69.0125 22.3316 69.0125 23.3054C69.0125 24.2651 69.3089 25.0131 69.9017 25.5494C70.5085 26.0856 71.2142 26.3538 72.0186 26.3538ZM82.0537 29H78.8782V13.2921H82.0537V21.3578L85.589 17.5896H89.5901L85.2503 22.2045L89.7594 29H85.9912L83.091 24.6391L82.0537 25.7187V29ZM101.333 27.3488C100.049 28.5625 98.539 29.1694 96.8031 29.1694C95.0813 29.1694 93.6559 28.6401 92.5269 27.5816C91.3978 26.509 90.8333 25.0766 90.8333 23.2842C90.8333 21.4918 91.4049 20.0664 92.548 19.0079C93.7053 17.9495 95.0672 17.4202 96.6338 17.4202C98.2003 17.4202 99.527 17.893 100.614 18.8386C101.714 19.7842 102.265 21.0826 102.265 22.7338V24.4274H93.9664C94.0652 25.0483 94.3898 25.5564 94.9402 25.9516C95.4906 26.3467 96.1116 26.5443 96.8031 26.5443C97.9181 26.5443 98.8354 26.1703 99.5552 25.4223L101.333 27.3488ZM99.0471 22.1622C98.9765 21.4848 98.7225 20.9626 98.285 20.5957C97.8475 20.2287 97.3112 20.0452 96.6761 20.0452C96.0551 20.0452 95.4836 20.2358 94.9614 20.6168C94.4392 20.9979 94.1358 21.513 94.0511 22.1622H99.0471ZM108.22 19.8971V24.9989C108.22 25.4364 108.333 25.7822 108.559 26.0363C108.785 26.2762 109.053 26.3961 109.363 26.3961C109.956 26.3961 110.457 26.128 110.866 25.5917L112.052 27.8145C111.064 28.7177 110.019 29.1694 108.919 29.1694C107.832 29.1694 106.907 28.8095 106.145 28.0897C105.397 27.3699 105.023 26.3891 105.023 25.1471V19.8971H103.69V17.6107H105.023V14.2024H108.22V17.6107H110.972V19.8971H108.22ZM120.55 29H114.072V14.2024H119.83C120.832 14.2024 121.693 14.3224 122.413 14.5623C123.147 14.8022 123.697 15.1268 124.064 15.5361C124.727 16.2982 125.059 17.1591 125.059 18.1188C125.059 19.2761 124.685 20.137 123.937 20.7015C123.683 20.8991 123.507 21.0261 123.408 21.0826C123.309 21.1249 123.133 21.2025 122.878 21.3154C123.796 21.513 124.523 21.9293 125.059 22.5644C125.609 23.1854 125.885 23.9616 125.885 24.8931C125.885 25.9233 125.532 26.8336 124.826 27.624C124.008 28.5413 122.582 29 120.55 29ZM117.374 20.1934H118.941C119.858 20.1934 120.536 20.0946 120.973 19.8971C121.425 19.6995 121.651 19.2761 121.651 18.6269C121.651 17.9636 121.446 17.5261 121.037 17.3144C120.627 17.1027 119.936 16.9968 118.962 16.9968H117.374V20.1934ZM117.374 26.2056H119.64C120.585 26.2056 121.291 26.0927 121.757 25.8669C122.236 25.627 122.476 25.1683 122.476 24.4909C122.476 23.7993 122.222 23.3477 121.714 23.136C121.22 22.9102 120.423 22.7973 119.322 22.7973H117.374V26.2056Z" fill="white"/>
<path fill-rule="evenodd" clip-rule="evenodd" d="M135.826 26.1086C134.106 26.1086 132.836 25.0163 132.124 23.5222C131.411 22.0261 131.912 20.2082 133.127 18.9858C133.885 18.2236 134.883 17.802 136.058 17.802H145.84C146.215 17.802 146.461 18.0478 146.461 18.4231V25.4099C146.461 25.7641 146.308 26.1086 145.995 26.1086H135.826ZM146.306 15.7842H143.901C143.329 15.8353 142.044 15.8112 140.586 15.7842H135.808C135.207 15.8136 134.723 15.8646 134.435 15.9466C132.751 16.4255 131.611 17.2518 130.687 18.7184C130.497 19.0186 130.379 19.2648 130.237 19.5886C130.014 20.0974 129.77 21.0326 129.77 21.7616C129.77 22.9141 129.928 23.7746 130.389 24.7132C130.693 25.3309 130.926 25.6229 131.34 26.0908C131.48 26.2478 131.538 26.3769 131.697 26.5099C132.835 27.4615 134.147 28.2045 136.213 28.2045H144.286V28.2151H146.305V28.2045C147.129 27.8089 147.663 27.8715 148.249 26.733C148.382 26.4733 148.478 26.2011 148.478 25.7978V18.1904C148.478 16.9434 147.406 15.8757 146.305 15.7842H146.306Z" fill="#F48734"/>
<path fill-rule="evenodd" clip-rule="evenodd" d="M133.885 21.9161C133.885 24.3749 136.785 25.7191 138.679 23.8386C139.121 23.4001 139.51 22.6244 139.455 21.9373C139.143 18.0616 133.885 18.5656 133.885 21.9161Z" fill="#F48734"/>
<path d="M155.803 29H152.627V13.2921H155.803V21.3578L159.338 17.5896H163.339L158.999 22.2045L163.509 29H159.74L156.84 24.6391L155.803 25.7187V29Z" fill="white"/>
</svg>
